<?xml version="1.0" encoding="UTF-8" standalone="no"?>
<!-- Created with Inkscape (http://www.inkscape.org/) -->

<svg
   xmlns:dc="http://purl.org/dc/elements/1.1/"
   xmlns:cc="http://creativecommons.org/ns#"
   xmlns:rdf="http://www.w3.org/1999/02/22-rdf-syntax-ns#"
   xmlns:svg="http://www.w3.org/2000/svg"
   xmlns="http://www.w3.org/2000/svg"
   xmlns:sodipodi="http://sodipodi.sourceforge.net/DTD/sodipodi-0.dtd"
   xmlns:inkscape="http://www.inkscape.org/namespaces/inkscape"
   version="1.1"
   id="svg476"
   width="460.79999"
   height="384"
   viewBox="0 0 460.79999 384"
   sodipodi:docname="DronLogoInicio.svg"
   inkscape:version="0.92.4 (fd57863, 2020-04-02)">
  <metadata
     id="metadata482">
    <rdf:RDF>
      <cc:Work
         rdf:about="">
        <dc:format>image/svg+xml</dc:format>
        <dc:type
           rdf:resource="http://purl.org/dc/dcmitype/StillImage" />
        <dc:title></dc:title>
      </cc:Work>
    </rdf:RDF>
  </metadata>
  <defs
     id="defs480" />
  <sodipodi:namedview
     pagecolor="#ffffff"
     bordercolor="#666666"
     borderopacity="1"
     objecttolerance="10"
     gridtolerance="10"
     guidetolerance="10"
     inkscape:pageopacity="0"
     inkscape:pageshadow="2"
     inkscape:window-width="1920"
     inkscape:window-height="1049"
     id="namedview478"
     showgrid="false"
     inkscape:zoom="2"
     inkscape:cx="190.91396"
     inkscape:cy="179.80169"
     inkscape:window-x="0"
     inkscape:window-y="0"
     inkscape:window-maximized="1"
     inkscape:current-layer="svg476" />
  <g
     id="g4252"
     transform="matrix(0.59977896,0,0,0.62944241,94.35483,53.395294)">
    <g
       transform="matrix(1.6673729,0,0,1.5847458,-156.97111,-84.374783)"
       id="g4243">
      <path
         inkscape:connector-curvature="0"
         id="path4247"
         d="M 0,192 V 0 h 230.39999 230.4 v 192 192 h -230.4 H 0 Z"
         style="fill:#fcfdfd;stroke-width:0.80000001" />
      <path
         inkscape:connector-curvature="0"
         id="path4245"
         d="m 150.4,305.50594 c -7.04477,-0.80602 -18.63858,-3.98126 -23.42694,-6.41603 -20.10329,-10.22203 -31.764566,-30.19337 -27.45415,-47.01855 1.50456,-5.87287 2.97534,-8.15895 9.91172,-15.40618 3.63582,-3.79875 6.3615,-5.84438 9.46643,-7.10458 2.39824,-0.97337 4.53107,-1.59914 4.73961,-1.3906 0.20854,0.20854 -0.90504,2.06105 -2.47462,4.11666 -3.7626,4.92773 -4.99141,8.04524 -5.60053,14.20865 -1.04709,10.59504 3.53172,23.44642 11.35542,31.87136 5.01046,5.3955 10.61691,8.84031 19.08306,11.72531 5.65438,1.92685 7.61162,2.18366 16.8,2.20433 11.45809,0.0258 15.74664,-0.69841 28.8,-4.86333 10.83798,-3.45806 22.75834,-9.46739 30.75463,-15.50411 6.50577,-4.91146 8.84182,-7.57493 12.18212,-13.8895 L 236.67351,254 l 1.32801,3.12933 c 1.64567,3.87784 1.1844,6.68705 -2.35306,14.33054 -7.72925,16.7008 -35.50592,30.88543 -66.76142,34.09284 -9.1412,0.93807 -9.89604,0.93616 -18.48704,-0.0468 z m 9.88165,-27.94272 c -13.24033,-1.35507 -24.02231,-7.73901 -28.93309,-17.1311 -1.72313,-3.29556 -2.11191,-5.12816 -2.12828,-10.03212 -0.0173,-5.1728 0.30615,-6.5889 2.34589,-10.27149 6.4986,-11.73269 21.25935,-19.68287 38.66083,-20.82284 l 7.71896,-0.50567 4.66636,-6 c 5.41388,-6.96115 11.23947,-18.44212 12.62484,-24.88083 0.54521,-2.53397 0.81916,-7.79483 0.63052,-12.10818 -0.29808,-6.81521 -0.6464,-8.26025 -3.27138,-13.57153 -9.47473,-19.17081 -32.64027,-32.32628 -70.83413,-40.22593 -5.51623,-1.14092 -6.00368,-1.12284 -8.84799,0.32822 -6.49516,3.31358 -12.73295,4.40345 -24.914182,4.353 -17.177366,-0.0711 -27.128441,-3.1941 -33.836298,-10.61889 -12.144008,-13.44197 9.016187,-27.649188 39.036298,-26.209452 10.619342,0.509296 16.823472,1.912816 23.618952,5.34316 6.40467,3.233064 9.58105,7.072382 9.58105,11.580702 v 3.53461 l 7.4,2.36028 c 17.01753,5.42787 35.3338,8.11694 55.24097,8.11012 22.25265,-0.008 36.71679,-2.81515 51.45606,-9.98777 6.90267,-3.35906 9.96572,-5.39826 13.66448,-9.09703 5.24296,-5.24296 10.181,-13.654296 8.39369,-14.297616 -1.87262,-0.674024 -7.56766,-5.360392 -9.21421,-7.582235 -5.48068,-7.395598 2.58876,-14.828748 16.96328,-15.62572 14.68662,-0.814275 29.32457,4.781563 34.17978,13.066345 2.44324,4.169082 2.1237,7.064154 -1.12293,10.173874 -3.41206,3.268176 -7.80236,4.66456 -16.11017,5.124024 -8.70644,0.481504 -8.7389,0.502952 -13.06391,8.630848 -2.3216,4.36294 -2.55566,5.45558 -2.57061,12 -0.0146,6.41674 0.25315,7.76569 2.46166,12.4 8.83268,18.53437 34.28619,34.19687 67.6524,41.62906 l 7.0909,1.57948 3.11166,-2.0592 c 8.90499,-5.89304 22.86989,-5.88778 35.66694,0.0134 12.84503,5.92335 20.20448,16.81254 16.82659,24.89698 -1.83888,4.40104 -3.83865,6.25637 -9.49024,8.80469 -5.77377,2.60341 -15.30229,3.47593 -22.08174,2.022 -12.69158,-2.72186 -23.31234,-10.11914 -26.13359,-18.20184 l -1.43647,-4.11539 -8.04228,-2.50897 c -26.93191,-8.40203 -54.90537,-9.37964 -79.08051,-2.76371 -23.59752,6.45787 -45.21541,23.93123 -54.98052,44.43977 -2.19392,4.60763 -2.29008,5.13574 -1.06772,5.86369 4.33695,2.58277 9.56781,7.70164 11.32494,11.0825 10.74036,20.66525 -20.15517,44.65823 -53.1568,41.28072 z m 219.85407,-59.61849 c -7.04069,-2.08139 -10.8322,-3.74547 -13.13573,-5.76519 -2.44665,-2.14522 -1.52479,-2.53244 2.8,-1.17611 6.08527,1.90845 19.87662,1.63718 28.2,-0.55469 19.41515,-5.11275 26.55962,-13.05912 22.38341,-24.89577 -3.57713,-10.13866 -20.38097,-24.04307 -34.29884,-28.38071 -5.38863,-1.67943 -5.55962,-1.80489 -3.28457,-2.40997 3.30359,-0.87863 14.73716,1.53469 20.98365,4.42909 9.65254,4.47266 18.16616,11.49235 23.56025,19.42602 3.9793,5.8528 5.4561,10.05058 5.4561,15.50888 0,8.69893 -4.60301,14.60021 -15.48066,19.84694 -12.89613,6.22032 -25.14947,7.52908 -37.18361,3.97151 z M 52.799999,135.10714 C 42.717689,133.01207 36.16475,129.87209 30.941351,124.63311 25.408372,119.08363 23.199999,114.45282 23.199999,108.4 c 0,-6.02924 2.169491,-10.579936 7.070339,-14.830656 16.116055,-13.978158 58.956796,-20.273597 84.040332,-12.349712 5.61666,1.774304 11.1124,4.82396 10.24903,5.687328 -0.17849,0.178504 -2.80745,-0.297464 -5.84213,-1.057704 -7.0747,-1.772336 -33.956388,-1.988344 -44.717572,-0.359328 -8.923396,1.350816 -20.244308,4.914984 -25.811435,8.12624 -11.861846,6.842202 -12.099465,17.757902 -0.636508,29.239772 5.479427,5.48847 13.799223,10.08075 20.954237,11.56612 3.162037,0.65644 4.189921,1.15276 3.410063,1.64656 -1.856705,1.17567 -11.058932,0.71283 -19.116356,-0.96148 z M 319.59212,90.69232 c 2.1928,-5.160144 0.36834,-10.637336 -5.70673,-17.132074 C 305.35688,64.442574 293.60641,60 278.01895,60 c -15.03027,0 -26.2949,2.843519 -31.72394,8.008045 l -3.1977,3.04189 -0.9185,-2.015912 c -0.76417,-1.677154 -0.63794,-2.504755 0.75118,-4.924968 3.82339,-6.661392 13.31084,-9.342101 32.67,-9.231019 12.30066,0.07058 14.27234,0.281466 20.63728,2.207297 17.1458,5.187791 30.54377,15.719555 31.54279,24.794875 0.31934,2.901024 0.0283,3.69116 -2.30732,6.263816 -3.07383,3.385816 -6.95038,5.065672 -5.88062,2.548296 z"
         style="fill:#45a9d6;stroke-width:0.80000001" />
    </g>
  </g>
  <text
     xml:space="preserve"
     style="font-style:normal;font-variant:normal;font-weight:500;font-stretch:normal;font-size:53.33333206px;line-height:1.25;font-family:Roboto;-inkscape-font-specification:'Roboto, Medium';font-variant-ligatures:normal;font-variant-caps:normal;font-variant-numeric:normal;font-feature-settings:normal;text-align:center;letter-spacing:0px;word-spacing:0px;writing-mode:lr-tb;text-anchor:middle;fill:#45a9d6;fill-opacity:1;stroke:none;stroke-width:1.19354081"
     x="187.87975"
     y="428.48114"
     id="text12"
     transform="scale(1.1935408,0.83784317)"><tspan
       sodipodi:role="line"
       id="tspan10"
       x="187.87975"
       y="428.48114"
       style="font-style:normal;font-variant:normal;font-weight:500;font-stretch:normal;font-size:53.33333206px;font-family:Roboto;-inkscape-font-specification:'Roboto, Medium';font-variant-ligatures:normal;font-variant-caps:normal;font-variant-numeric:normal;font-feature-settings:normal;text-align:center;writing-mode:lr-tb;text-anchor:middle;stroke-width:1.19354081">Drone Facade</tspan></text>
</svg>
